<svg xmlns="http://www.w3.org/2000/svg" width="933.333" height="933.333" version="1" viewBox="0 0 700 700"><path d="M94.5 36.3c-7.3 1.2-18.5 7-24.7 12.6-8.3 7.6-15.4 21.1-17.4 33.2-1 5.7-1.3 580.1-.3 581.4.5.7 22.3 1 62.6.9 34-.1 62-.2 62.3-.3.3-.1.5-115.9.5-257.3V149.5l162.5-.1c89.4 0 164.4.3 166.7.8 5.9 1 9.8 4.2 12.5 10.2 2.2 5.1 2.3 5.4 2.4 51.4 0 47.2-.3 53.6-4.1 67.7-7.3 27.3-29.5 50.4-57.5 59.8-15.5 5.2-11.4 5-141 5.3-66.3.1-120.7.3-121 .3-.3.1-.5 25.7-.5 56.9v56.9l37.2-.1 37.3-.1 3.2 2.8c1.8 1.6 8.3 7.7 14.4 13.5 14.3 13.8 41.1 39.2 43.8 41.5 1.2 1 6.6 6.2 12.1 11.5 10.2 9.8 38.1 36.3 44.5 42.2 1.9 1.8 10.3 9.7 18.5 17.5 8.3 7.9 16.6 15.7 18.5 17.5 1.9 1.8 10.9 10.3 20 19 9.1 8.6 20.5 19.5 25.4 24.1 4.9 4.6 10.4 9.8 12.2 11.6 1.8 1.7 4.1 3.6 5.1 4 1.3.7 180 1 182.2.4.2 0-.7-1-2-2.2-1.3-1.1-8.7-8.1-16.4-15.4-7.7-7.3-15.3-14.5-17-16.1-2.5-2.2-22.8-21.4-38.6-36.4-2-1.9-10.1-9.6-18-17-7.8-7.4-16.4-15.5-19-18-2.6-2.5-10-9.5-16.5-15.7-6.6-6.1-14-13.1-16.5-15.5-2.5-2.3-11.7-11.1-20.4-19.3-8.8-8.3-20.2-19.1-25.5-24.1-5.2-4.9-13.4-12.7-18.2-17.2-4.7-4.5-8.1-8.2-7.5-8.3.7-.1 3.2-.2 5.7-.4 5.5-.3 17.3-1.5 20.3-2.1 32.5-6.2 53.3-14.2 76.2-29.3 7.7-5.1 7-4.6 17.5-12.9 6.9-5.5 20.7-18.8 24.5-23.7 15.6-19.9 25.7-37.7 33.1-58.5 3.3-9.3 6.8-21 7.8-26 .3-1.4 1-5 1.6-8 .6-3 1.4-7.3 1.6-9.5.3-2.2.7-5.1 1-6.5 1.3-7.3 1.8-27.4 1.8-72-.1-46.6-.2-50.2-2.3-61.5-4.1-22.1-9.7-38.1-18.6-53-6.8-11.5-17-24.1-24.3-30.2-3.1-2.6-5.9-5.1-6.2-5.4-1.4-1.7-14.9-10.1-21.3-13.2-6.9-3.4-17.5-7.2-22.7-8.1-1.4-.2-3.6-.7-5-1-1.4-.3-4.7-.8-7.5-1.2-7.2-1-439-1.1-445-.1z"/></svg>